<svg width="32" height="32" viewBox="0 0 32 32" fill="none" xmlns="http://www.w3.org/2000/svg">
<path d="M5.31055 0.0332031V10.5106C5.31055 12.6067 7.32099 14.4775 10.3366 15.1877L19.2959 17.2976L24.5734 18.5423C24.5787 18.5423 24.584 18.546 24.5892 18.546C25.9878 18.8802 26.6897 19.7393 26.6897 20.5948V6.62395C26.6897 5.83086 26.0881 5.03777 24.8848 4.65956C24.8795 4.65588 24.8742 4.65221 24.8689 4.65588L19.2959 3.33774L5.31055 0.0332031Z" fill="url(#paint0_linear_6010_89016)"/>
<path d="M9.09375 14.8965V27.8467C9.09375 26.9985 9.7851 26.1467 11.1625 25.8052C11.1731 25.8015 11.1836 25.8015 11.1942 25.7979C11.1995 25.7979 11.2048 25.7942 11.21 25.7942L14.9887 24.9056L16.4875 24.5531L24.5727 22.6475L24.6096 22.6365C25.9923 22.2987 26.6889 21.4468 26.6889 20.595C26.6889 19.7432 25.987 18.8803 24.5885 18.5462C24.5832 18.5462 24.578 18.5425 24.5727 18.5425L19.2952 17.3015L9.09375 14.8965Z" fill="url(#paint1_linear_6010_89016)"/>
<path d="M9.09375 27.8463C9.09375 28.7055 9.80094 29.5647 11.21 29.8988L14.9887 30.791L16.4875 31.1435L19.724 31.9065C21.2722 32.2714 22.905 31.5212 22.905 30.445V23.04L19.2952 23.8919L16.4875 24.5528L14.9887 24.9053L11.21 25.7939C11.21 25.7939 11.1995 25.7975 11.1942 25.7975C11.1837 25.8012 11.1731 25.8012 11.1625 25.8049C9.7851 26.1463 9.09375 26.9982 9.09375 27.8463Z" fill="url(#paint2_linear_6010_89016)"/>
<path d="M9.09375 14.8623V27.8125C9.09375 26.9643 9.7851 26.1125 11.1625 25.771C11.1731 25.7673 11.1836 25.7673 11.1942 25.7636C11.1995 25.7636 11.2048 25.76 11.21 25.76L14.9887 24.8714L16.4875 24.5189L24.5727 22.6133L24.6096 22.6023C25.9923 22.2645 26.6889 21.4127 26.6889 20.5608C26.6889 19.709 25.987 18.8461 24.5885 18.512C24.5832 18.512 24.578 18.5083 24.5727 18.5083L19.2952 17.2673L9.09375 14.8623Z" fill="url(#paint3_linear_6010_89016)"/>
<path d="M9.09375 27.8131C9.09375 28.6723 9.80094 29.5315 11.21 29.8656L14.9887 30.7578L16.4875 31.1103L19.724 31.8732C21.2722 32.2382 22.905 31.488 22.905 30.4118V23.0068L19.2952 23.8587L16.4875 24.5196L14.9887 24.8721L11.21 25.7606C11.21 25.7606 11.1995 25.7643 11.1942 25.7643C11.1837 25.768 11.1731 25.768 11.1625 25.7716C9.7851 26.1131 9.09375 26.9649 9.09375 27.8131Z" fill="url(#paint4_linear_6010_89016)"/>
<path d="M5.31055 0V10.4774C5.31055 12.5735 7.32099 14.4443 10.3366 15.1545L19.2959 17.2644L24.5734 18.5091C24.5787 18.5091 24.584 18.5128 24.5892 18.5128C25.9878 18.847 26.6897 19.7061 26.6897 20.5616V6.59072C26.6897 5.79763 26.0881 5.00454 24.8848 4.62636C24.8795 4.62269 24.8742 4.61902 24.8689 4.62269L19.2959 3.30454L5.31055 0Z" fill="url(#paint5_linear_6010_89016)"/>
<defs>
<linearGradient id="paint0_linear_6010_89016" x1="17.5424" y1="2.68652" x2="13.7463" y2="18.6592" gradientUnits="userSpaceOnUse">
<stop stop-color="#20DE99" stop-opacity="0"/>
<stop offset="1" stop-color="#20DE99"/>
</linearGradient>
<linearGradient id="paint1_linear_6010_89016" x1="12.6362" y1="17.1988" x2="14.6059" y2="25.3147" gradientUnits="userSpaceOnUse">
<stop stop-color="#20DE99" stop-opacity="0"/>
<stop offset="1" stop-color="#20DE99"/>
</linearGradient>
<linearGradient id="paint2_linear_6010_89016" x1="19.2948" y1="24.1473" x2="17.6419" y2="32.9642" gradientUnits="userSpaceOnUse">
<stop stop-color="#20DE99" stop-opacity="0"/>
<stop offset="1" stop-color="#20DE99"/>
</linearGradient>
<linearGradient id="paint3_linear_6010_89016" x1="11.9524" y1="15.9218" x2="15.0076" y2="27.3007" gradientUnits="userSpaceOnUse">
<stop stop-color="#20DE99" stop-opacity="0"/>
<stop offset="1" stop-color="#20DE99"/>
</linearGradient>
<linearGradient id="paint4_linear_6010_89016" x1="19.7296" y1="24.3628" x2="17.8632" y2="33.0247" gradientUnits="userSpaceOnUse">
<stop stop-color="#20DE99" stop-opacity="0"/>
<stop offset="1" stop-color="#20DE99"/>
</linearGradient>
<linearGradient id="paint5_linear_6010_89016" x1="17.5424" y1="2.65332" x2="13.7463" y2="18.626" gradientUnits="userSpaceOnUse">
<stop stop-color="#20DE99" stop-opacity="0"/>
<stop offset="1" stop-color="#20DE99"/>
</linearGradient>
</defs>
</svg>
