<svg width="300" height="1080" viewBox="0 0 300 1080" fill="none" xmlns="http://www.w3.org/2000/svg">
<g clip-path="url(#clip0_18340_66368)">
<g clip-path="url(#clip1_18340_66368)">
<rect width="1920" height="1080" fill="url(#paint0_linear_18340_66368)"/>
<path d="M1107.5 893.5C562.982 1189.94 47 600 -12 138L-209 -156V1191.5H2105V-87H1282C1513 304.5 1366.5 752.5 1107.5 893.5Z" fill="url(#paint1_radial_18340_66368)"/>
<path d="M1107.5 893.5C562.982 1189.94 47 600 -12 138L-209 -156V1191.5H2105V-87H1282C1513 304.5 1366.5 752.5 1107.5 893.5Z" fill="url(#paint2_radial_18340_66368)"/>
<path d="M954 917C573.5 1027 47 1045.5 -136 554.5V1276.5H1835.5C1672 987 1334.5 807 954 917Z" fill="url(#paint3_radial_18340_66368)"/>
<g filter="url(#filter0_bf_18340_66368)">
<ellipse cx="27.7429" cy="339.982" rx="306.617" ry="71.0083" transform="rotate(-121.243 27.7429 339.982)" fill="white" fill-opacity="0.01"/>
</g>
<g filter="url(#filter1_bf_18340_66368)">
<ellipse cx="185.205" cy="915.682" rx="149.663" ry="76.9322" transform="rotate(-151.097 185.205 915.682)" fill="#F6639E" fill-opacity="0.01"/>
</g>
</g>
</g>
<defs>
<filter id="filter0_bf_18340_66368" x="-216.531" y="1.22656" width="488.547" height="677.516" filterUnits="userSpaceOnUse" color-interpolation-filters="sRGB">
<feFlood flood-opacity="0" result="BackgroundImageFix"/>
<feGaussianBlur in="BackgroundImageFix" stdDeviation="0.5"/>
<feComposite in2="SourceAlpha" operator="in" result="effect1_backgroundBlur_18340_66368"/>
<feBlend mode="normal" in="SourceGraphic" in2="effect1_backgroundBlur_18340_66368" result="shape"/>
<feGaussianBlur stdDeviation="37" result="effect2_foregroundBlur_18340_66368"/>
</filter>
<filter id="filter1_bf_18340_66368" x="-12.0234" y="755.844" width="394.457" height="319.672" filterUnits="userSpaceOnUse" color-interpolation-filters="sRGB">
<feFlood flood-opacity="0" result="BackgroundImageFix"/>
<feGaussianBlur in="BackgroundImageFix" stdDeviation="30.5"/>
<feComposite in2="SourceAlpha" operator="in" result="effect1_backgroundBlur_18340_66368"/>
<feBlend mode="normal" in="SourceGraphic" in2="effect1_backgroundBlur_18340_66368" result="shape"/>
<feGaussianBlur stdDeviation="30" result="effect2_foregroundBlur_18340_66368"/>
</filter>
<linearGradient id="paint0_linear_18340_66368" x1="-138.5" y1="710.5" x2="1301.5" y2="67.4999" gradientUnits="userSpaceOnUse">
<stop offset="0.108164" stop-color="#3385F0"/>
<stop offset="0.248048" stop-color="#0DA6D6"/>
<stop offset="0.582924" stop-color="#00FFA2"/>
<stop offset="0.95" stop-color="#0DA6D6"/>
</linearGradient>
<radialGradient id="paint1_radial_18340_66368" cx="0" cy="0" r="1" gradientUnits="userSpaceOnUse" gradientTransform="translate(273 879) rotate(-131.468) scale(344.308 541.127)">
<stop stop-color="#A641FA"/>
<stop offset="1" stop-color="#3385F0"/>
</radialGradient>
<radialGradient id="paint2_radial_18340_66368" cx="0" cy="0" r="1" gradientUnits="userSpaceOnUse" gradientTransform="translate(1793.5 4.49996) rotate(151.379) scale(1071.99 1840.88)">
<stop offset="0.08" stop-color="#D02241"/>
<stop offset="0.21" stop-color="#ED26D6"/>
<stop offset="0.31" stop-color="#A641FA"/>
<stop offset="1" stop-color="white" stop-opacity="0"/>
</radialGradient>
<radialGradient id="paint3_radial_18340_66368" cx="0" cy="0" r="1" gradientUnits="userSpaceOnUse" gradientTransform="translate(63 925) rotate(10.9028) scale(1062.68 2410.83)">
<stop stop-color="#F8A250"/>
<stop offset="0.22673" stop-color="#D02241"/>
</radialGradient>
<clipPath id="clip0_18340_66368">
<rect width="300" height="1080" fill="white"/>
</clipPath>
<clipPath id="clip1_18340_66368">
<rect width="1920" height="1080" fill="white"/>
</clipPath>
</defs>
</svg>
